<svg xmlns="http://www.w3.org/2000/svg" xml:space="preserve" preserveAspectRatio="xMidYMid" viewBox="0 0 390.5 390.5"><path fill="#000" d="M289.545 257.295h-2.041l-6.327 27.35h-46.74l-1.021-.204-1.021-.408-.408-.408-.408-1.021-.204-1.021v-68.17h33.064v36.126l-.204 1.429-.204 1.021-.408.816-.408.612-1.021.204-.816.204-1.429.204H238.11v3.266l21.839 3.266v6.531l2.857-.204 2.653-.408 2.653-.816 2.449-1.429 2.245-1.837 1.837-2.041 1.429-2.653.816-2.653.408-2.653.204-2.857V127.894l5.511-4.49-12.042-9.797-6.531 5.511h-75.722l-13.267-6.735v88.988l.204 8.98-.408 8.368-.816 7.96-1.021 7.552-1.633 6.735-1.837 6.327-2.245 5.919-2.857 5.307-3.062 5.103-3.47 4.898 1.225 1.429 5.307-3.47 4.898-4.49 4.082-5.307 3.674-6.123 3.062-6.735 2.653-7.348 2.245-7.756 1.429-8.572.816-6.735h30.615v69.598l.612 2.857.816 2.653 1.429 2.449 1.633 2.245 2.245 1.633 2.653 1.429 2.449 1.021 2.857.408 2.857.204h51.638l3.878-2.653 2.653-3.878-2.653-4.082-3.878-2.449 2.046-27.553zm-71.232-48.372h-30.207l.612-7.552v-31.84h29.595v39.392zm-29.594-43.882v-41.637h29.595v41.637h-29.595zm75.721 4.49v39.392h-33.064v-39.392h33.064zm-33.064-46.127h33.064v41.637h-33.064v-41.637zm-101.438 97.765v60.21l-.204 1.429-.204 1.021-.408 1.021-.408.408-1.021.408-.816.204h-23.269v3.266l21.839 3.266v6.531h2.857l2.653-.408 2.653-1.021 2.449-1.429 2.245-1.633 1.837-2.245 1.429-2.449.816-2.653.408-2.857.204-2.857v-67.558l10.613-5.919 12.858-8.368 6.123-4.49-1.021-1.633-14.083 5.103L143 204.228v-47.147h29.187v-4.286l-13.267-11.021-11.021 11.021H143v-36.126l3.266-2.041-3.266-2.245-13.063-2.245v42.657h-28.574v4.286h28.574v52.658l-31.432 12.858 7.348 11.021 3.47 2.041.612-4.082 20.003-10.408z"/></svg>