<svg xmlns="http://www.w3.org/2000/svg" xml:space="preserve" preserveAspectRatio="xMidYMid" viewBox="0 0 390.5 390.5"><path fill="#000" d="m186.461 272.848 4.297-2.344 1.172-4.688-2.539-4.102-3.125-1.758-3.32-1.758-3.516-1.367-7.422-2.93-3.906-1.172-8.594-2.148-4.883-.781 1.367-2.93 1.953-6.836.781-7.617v-33.594l3.125-1.953-3.125-2.148-12.695-1.953v45.508l-.781 5.273-1.563 4.883-2.539 4.688-3.516 4.492-4.297 4.102-5.273 4.102-6.445 3.711-7.422 3.516-8.398 3.32.391 1.758 9.18-1.367 8.398-1.953 7.617-2.93 6.641-3.516 5.859-4.297 5.078-5.078 4.297-6.445.586.391 3.906 2.148 13.867 8.398 2.93 2.148 7.422 6.25 4.492.977zm100.586-4.102-9.375-8.984-6.836-7.813-6.25-8.398-5.273-9.18-4.883-9.766-3.906-10.547-3.32-11.133-2.734-11.914-2.148-12.695-.781-6.055.781-6.641 1.367-15.234 3.516-1.758-3.125-2.344-12.5-2.93-.195 3.516-.781 17.773-1.563 17.383-2.148 16.016-2.539 14.648-3.125 13.477-3.906 11.914-4.102 10.547-4.883 9.375-5.273 8.203-5.664 7.227 1.172 1.367 7.617-6.055 6.836-7.617 6.25-9.375 5.664-10.742 4.688-12.305 4.102-13.672 3.711-15.039.977-6.641 1.172 11.133 2.539 12.109 3.125 11.523 4.297 10.938 5.273 10.547 6.055 9.766 7.031 9.18 7.813 8.594 11.324-8.398zm-170.703-96.875v82.227l12.695-6.445v-65.234h45.703v66.602l12.695-6.25v-56.25l5.273-4.102-11.719-9.57-6.25 5.273h-45.703l-12.694-6.251zm102.929-79.492-.586 2.148-1.172 7.813-1.563 7.813-1.758 7.813-3.906 15.625-2.344 7.813-10.742 31.445 1.563.977 4.688-7.227 4.492-7.227 3.711-7.617 4.688-9.766h53.125l-3.32 10.352-11.719 31.055 1.758.977 10.547-14.844 8.203-13.086 5.469-10.352 2.539-.977 5.273-3.125-11.523-9.57-6.445 5.273h-52.148l.586-1.172 2.93-7.813 5.273-15.82 3.32-12.109 3.711-1.367-2.734-2.539-11.916-4.493zm-53.906 32.422v21.289h-26.953v-15.234l2.93-1.758-2.93-2.148-11.719-2.148v21.289h-23.437v4.297h23.438v22.852l11.719-5.664v-17.188h26.953v22.852l11.523-5.664v-17.188h23.633v-4.297l-10.547-9.375-8.594 9.375h-4.492v-15.234l2.93-1.758-2.93-2.148-11.524-2.15zm-18.75-32.031v19.531h-36.133v4.102h36.133v21.094l10.547-5.078v-16.016h35.938v-4.102l-12.5-10.547-10.547 10.547h-12.891V98.629l2.539-1.758-2.539-1.953-10.547-2.148z"/></svg>